<?xml version="1.0" encoding="utf-8"?>
<!-- Generator: Adobe Illustrator 22.1.0, SVG Export Plug-In . SVG Version: 6.00 Build 0)  -->
<svg version="1.1" id="Layer_1" xmlns="http://www.w3.org/2000/svg" xmlns:xlink="http://www.w3.org/1999/xlink" x="0px" y="0px"
	 viewBox="0 0 296.5 76" style="enable-background:new 0 0 296.5 76;" xml:space="preserve">
<style type="text/css">
	.st0{opacity:0.55;}
	.st1{fill:#284F88;}
	.st2{fill:#F47B20;}
	.st3{opacity:0.65;}
	.st4{clip-path:url(#SVGID_2_);}
	.st5{fill:none;stroke:#467085;stroke-width:0.75;stroke-miterlimit:10;}
</style>
<title>HHA_Logo_Horiz_CMYK</title>
<g class="st0">
	<path class="st1" d="M37.5,57.1h-9.7L21.2,47l-6.6,10.2H4.8l11.5-16.7l-11-15.9h9.7l6.1,9.5l6.1-9.5h9.9l-11,16.1L37.5,57.1z"/>
</g>
<path class="st1" d="M142.6,46.9L142.6,46.9c0-5.4,3.8-9.8,9.2-9.8c6.2,0,9.1,4.9,9.1,10.1c0,0.4,0,0.9-0.1,1.4h-13
	c0.3,2.2,2.3,3.8,4.6,3.7c1.7,0,3.4-0.7,4.5-1.9l3,2.7c-3.5,4.2-9.8,4.7-13.9,1.1C143.9,52.4,142.6,49.8,142.6,46.9L142.6,46.9z
	 M155.8,45.4c-0.3-2.4-1.7-4-3.9-4s-3.6,1.6-4,4H155.8z"/>
<path class="st1" d="M181.5,46.9L181.5,46.9c-0.1-5.4,4.2-9.7,9.4-9.8c0.1,0,0.2,0,0.3,0c2.8-0.2,5.6,1,7.5,3.1l-3.2,3.5
	c-1-1.3-2.6-2-4.2-2c-2.6,0-4.5,2.3-4.5,5.1v0.1c0,2.9,1.8,5.1,4.7,5.1c1.6,0,3.2-0.8,4.3-2l3.1,3.1c-1.9,2.3-4.7,3.5-7.6,3.4
	c-5.3,0.1-9.6-4.1-9.7-9.3C181.5,47.1,181.5,47,181.5,46.9z"/>
<path class="st1" d="M199.6,30.7h5.3v9.4c1.2-1.9,3.3-3,5.5-3c4,0,6.3,2.6,6.3,6.9v12.1h-5.3V45.8c0-2.5-1.2-3.8-3.2-3.8
	s-3.3,1.3-3.3,3.8v10.4h-5.3V30.7z"/>
<path class="st1" d="M217.4,50.8L217.4,50.8c0-4.1,3.1-6.1,7.5-6.1c1.6,0,3.1,0.2,4.6,0.8v-0.3c0-2.2-1.4-3.4-4-3.4
	c-1.8,0-3.5,0.3-5.2,1l-1.3-4c2.3-1,4.8-1.6,7.2-1.5c2.9,0,5,0.8,6.3,2.1c1.4,1.6,2.2,3.8,2,6v10.8h-5.1v-2
	c-1.4,1.6-3.5,2.5-5.6,2.4C220.3,56.5,217.4,54.5,217.4,50.8z M229.6,49.6v-0.9c-1.1-0.5-2.2-0.7-3.4-0.7c-2.3,0-3.7,0.9-3.7,2.6
	v0.1c0,1.4,1.2,2.3,2.9,2.3C227.9,52.9,229.6,51.5,229.6,49.6z"/>
<path class="st1" d="M236.4,37.5h5.3v2.6c1.2-1.9,3.3-3,5.5-3c4,0,6.3,2.6,6.3,6.9v12.1h-5.3V45.8c0-2.5-1.2-3.8-3.2-3.8
	s-3.3,1.3-3.3,3.8v10.4h-5.3V37.5z"/>
<path class="st1" d="M255.5,59.9l1.8-4c1.9,1.1,4.1,1.7,6.3,1.7c3.6,0,5.3-1.7,5.3-5.1v-0.9c-1.4,1.9-3.7,3.1-6.1,3
	c-4.4,0-8.3-3.2-8.3-8.7v-0.1c0-5.6,4-8.7,8.3-8.7c2.3,0,4.5,1,6,2.8v-2.4h5.3V52c0,3.3-0.8,5.8-2.4,7.4c-1.7,1.7-4.4,2.5-8,2.5
	C260.8,61.9,258,61.2,255.5,59.9z M268.9,45.9L268.9,45.9c-0.2-2.6-2.3-4.5-4.9-4.3c-2.3,0.2-4.1,2-4.2,4.2v0.1
	c0,2.4,1.9,4.3,4.2,4.3c0.1,0,0.2,0,0.3,0c2.4,0.1,4.4-1.7,4.6-4.1C268.9,46.1,268.9,46,268.9,45.9L268.9,45.9z"/>
<path class="st1" d="M275.2,46.9L275.2,46.9c0-5.4,3.8-9.8,9.2-9.8c6.2,0,9.1,4.9,9.1,10.1c0,0.4,0,0.9-0.1,1.4h-13
	c0.4,2.2,2.3,3.8,4.6,3.7c1.7,0,3.4-0.7,4.5-1.9l3,2.7c-3.5,4.2-9.8,4.7-13.9,1.1C276.5,52.4,275.2,49.8,275.2,46.9L275.2,46.9z
	 M288.4,45.4c-0.3-2.4-1.7-4-3.9-4s-3.6,1.6-4,4H288.4z"/>
<g class="st0">
	<path class="st1" d="M183.8,56.2h-7.2l-4.9-7.6l-4.9,7.6h-7.4l8.6-12.5l-8.2-11.9h7.2l4.6,7.1l4.5-7.1h7.4l-8.2,12L183.8,56.2z"/>
</g>
<polygon class="st1" points="171.6,48.6 166.7,56.2 159.3,56.2 167.9,43.7 159.7,31.8 166.9,31.8 171.5,38.9 175.2,43.8 "/>
<path class="st2" d="M57.8,21.4h7.6v13.7h14.1V21.4h7.6v34.7h-7.6V42.2H65.4v13.9h-7.6V21.4z"/>
<path class="st2" d="M79.6,21.4h7.6v13.7h14.1V21.4h7.6v34.7h-7.6V42.2H87.3v13.9h-7.6L79.6,21.4z"/>
<path class="st2" d="M121.3,21.2h7l14.9,35h-8l-3.2-7.8h-14.7l-3.2,7.8h-7.8L121.3,21.2z M129.3,41.6l-4.6-11.3l-4.6,11.3H129.3z"/>
<path class="st1" d="M28,17.8c0,3.9-3.1,7-7,7s-7-3.1-7-7s3.1-7,7-7S28,13.9,28,17.8"/>
<path class="st1" d="M11.8,40.8c0,1.9-1.6,3.5-3.5,3.5c-1.9,0-3.5-1.6-3.5-3.5c0-1.9,1.6-3.5,3.5-3.5S11.8,38.9,11.8,40.8
	C11.8,40.8,11.8,40.8,11.8,40.8"/>
<path class="st1" d="M36.9,40.8c0,1.9-1.6,3.5-3.5,3.5c-1.9,0-3.5-1.6-3.5-3.5c0-1.9,1.6-3.5,3.5-3.5S36.9,38.9,36.9,40.8
	C36.9,40.8,36.9,40.8,36.9,40.8"/>
<g class="st3">
	<g>
		<defs>
			<rect id="SVGID_1_" x="47.4" y="1.7" width="0.5" height="71.4"/>
		</defs>
		<clipPath id="SVGID_2_">
			<use xlink:href="#SVGID_1_"  style="overflow:visible;"/>
		</clipPath>
		<g class="st4">
			<line class="st5" x1="47.6" y1="1.7" x2="47.6" y2="73.1"/>
		</g>
	</g>
</g>
<polygon class="st1" points="21.3,47 14.7,57.1 4.8,57.1 16.3,40.4 5.3,24.5 14.9,24.5 21.1,34 26.1,40.6 "/>
</svg>
